<svg xmlns="http://www.w3.org/2000/svg" viewBox="0 0 100 100">
  <defs>
    <linearGradient id="grad1" x1="0%" y1="0%" x2="100%" y2="100%">
      <stop offset="0%" style="stop-color:#667eea;stop-opacity:1" />
      <stop offset="100%" style="stop-color:#764ba2;stop-opacity:1" />
    </linearGradient>
  </defs>
  <rect width="100" height="100" rx="20" fill="url(#grad1)"/>
  <path d="M50 15 C55 15 60 20 60 25 C60 30 55 35 50 35 C45 35 40 30 40 25 C40 20 45 15 50 15 M50 40 C65 40 75 50 75 60 L75 70 L25 70 L25 60 C25 50 35 40 50 40 M30 75 L70 75 L70 85 L30 85 Z" fill="white" opacity="0.9"/>
</svg>
